<?xml version="1.0" encoding="utf-8"?>
<!-- Generator: Adobe Illustrator 23.0.0, SVG Export Plug-In . SVG Version: 6.00 Build 0)  -->
<svg version="1.1" id="Layer_1" xmlns="http://www.w3.org/2000/svg" xmlns:xlink="http://www.w3.org/1999/xlink" x="0px" y="0px"
	 viewBox="0 0 300 80" style="enable-background:new 0 0 300 80;" xml:space="preserve">
<style type="text/css">
	.st0{fill:#033B59;}
	.st1{fill:url(#SVGID_1_);}
	.st2{fill:url(#SVGID_2_);}
	.st3{fill:url(#SVGID_3_);}
	.st4{opacity:0.68;fill:url(#SVGID_4_);}
	.st5{fill:url(#SVGID_5_);}
	.st6{fill:#032D3F;}
	.st7{fill:#033F5D;}
	.st8{fill:#034362;}
	.st9{fill:#034766;}
	.st10{fill:#024B6A;}
	.st11{fill:#024F6E;}
	.st12{fill:#025473;}
	.st13{fill:#025877;}
	.st14{fill:#025C7B;}
	.st15{fill:#026080;}
	.st16{fill:#026484;}
	.st17{fill:#016888;}
	.st18{fill:#016C8C;}
	.st19{fill:#017091;}
	.st20{fill:#017495;}
	.st21{fill:#017899;}
	.st22{fill:#017D9E;}
	.st23{fill:#0181A2;}
	.st24{fill:#0085A6;}
	.st25{fill:#0089AA;}
	.st26{fill:#008DAF;}
	.st27{fill:#0091B3;}
	.st28{fill:#1AAEC6;}
	.st29{fill:#1A7696;}
</style>
<g>
	<rect x="0" y="0" class="st0" width="300" height="80"/>
</g>
<linearGradient id="SVGID_1_" gradientUnits="userSpaceOnUse" x1="150" y1="0.464" x2="150" y2="5.4963">
	<stop  offset="0" style="stop-color:#021724"/>
	<stop  offset="0.224" style="stop-color:#033B59"/>
	<stop  offset="0.399" style="stop-color:#044569"/>
	<stop  offset="0.5767" style="stop-color:#055885"/>
	<stop  offset="0.6796" style="stop-color:#03324D"/>
	<stop  offset="0.7016" style="stop-color:#021724"/>
	<stop  offset="0.7483" style="stop-color:#04496E"/>
	<stop  offset="0.9976" style="stop-color:#033B59"/>
</linearGradient>
<rect x="0" y="0" class="st1" width="300" height="6"/>
<linearGradient id="SVGID_2_" gradientUnits="userSpaceOnUse" x1="150" y1="74.0557" x2="150" y2="79.0879" gradientTransform="matrix(-1 0 0 -1 300 154)">
	<stop  offset="0" style="stop-color:#021724"/>
	<stop  offset="0.0344" style="stop-color:#033B59"/>
	<stop  offset="0.1423" style="stop-color:#055885"/>
	<stop  offset="0.5861" style="stop-color:#033B59"/>
	<stop  offset="0.7204" style="stop-color:#021724"/>
	<stop  offset="0.7905" style="stop-color:#03324D"/>
	<stop  offset="0.8455" style="stop-color:#04517A"/>
	<stop  offset="1" style="stop-color:#033B59"/>
</linearGradient>
<polygon class="st2" points="0,74 300,74 300,80 0,80 "/>
<radialGradient id="SVGID_3_" cx="199.9432" cy="2.6429" r="41.7328" gradientTransform="matrix(1.6864 0 0 0.0354 -166.6924 3.4065)" gradientUnits="userSpaceOnUse">
	<stop  offset="0" style="stop-color:#FFFFFF;stop-opacity:0.4"/>
	<stop  offset="0.7202" style="stop-color:#FFFFFF;stop-opacity:0"/>
</radialGradient>
<ellipse class="st3" cx="170.5" cy="3.5" rx="99.5" ry="3.5"/>
<radialGradient id="SVGID_4_" cx="122.8578" cy="2.6429" r="41.7328" gradientTransform="matrix(1.6864 0 0 0.0354 -166.6924 3.4065)" gradientUnits="userSpaceOnUse">
	<stop  offset="0" style="stop-color:#FFFFFF;stop-opacity:0.4"/>
	<stop  offset="0.7202" style="stop-color:#FFFFFF;stop-opacity:0"/>
</radialGradient>
<ellipse class="st4" cx="40.5" cy="3.5" rx="99.5" ry="3.5"/>
<radialGradient id="SVGID_5_" cx="224.8477" cy="34.7857" r="41.7328" gradientTransform="matrix(1.6864 0 0 0.0354 -166.6924 77.2688)" gradientUnits="userSpaceOnUse">
	<stop  offset="0" style="stop-color:#FFFFFF;stop-opacity:0.4"/>
	<stop  offset="0.7202" style="stop-color:#FFFFFF;stop-opacity:0"/>
</radialGradient>
<ellipse class="st5" cx="212.5" cy="78.5" rx="99.5" ry="3.5"/>
<g id="btn_x5F_lft">
	<path class="st6" d="M3.61,74C2.17,74,1,72.83,1,71.39V8.61C1,7.17,2.17,6,3.61,6h142.79c1.44,0,2.61,1.17,2.61,2.61v62.79
		c0,1.44-1.17,2.61-2.61,2.61H3.61z"/>
	<g>
		<path class="st0" d="M3.61,73C2.72,73,2,72.28,2,71.39V8.61C2,7.72,2.72,7,3.61,7h142.79c0.89,0,1.61,0.72,1.61,1.61v62.79
			c0,0.89-0.72,1.61-1.61,1.61H3.61z"/>
		<path class="st7" d="M2.19,71.18V8.82c0-0.9,0.73-1.63,1.63-1.63h142.36c0.9,0,1.63,0.73,1.63,1.63v62.36
			c0,0.9-0.73,1.63-1.63,1.63H3.82C2.92,72.81,2.19,72.08,2.19,71.18z"/>
		<path class="st8" d="M2.38,70.96V9.04c0-0.91,0.74-1.66,1.66-1.66h141.93c0.91,0,1.66,0.74,1.66,1.66v61.93
			c0,0.91-0.74,1.66-1.66,1.66H4.04C3.12,72.62,2.38,71.88,2.38,70.96z"/>
		<path class="st9" d="M2.57,70.75V9.25c0-0.93,0.75-1.68,1.68-1.68h141.49c0.93,0,1.68,0.75,1.68,1.68v61.49
			c0,0.93-0.75,1.68-1.68,1.68H4.25C3.33,72.43,2.57,71.67,2.57,70.75z"/>
		<path class="st10" d="M2.76,70.53V9.47c0-0.94,0.77-1.71,1.71-1.71h141.06c0.94,0,1.71,0.77,1.71,1.71v61.06
			c0,0.94-0.77,1.71-1.71,1.71H4.47C3.53,72.24,2.76,71.47,2.76,70.53z"/>
		<path class="st11" d="M2.95,70.32V9.68c0-0.95,0.78-1.73,1.73-1.73h140.63c0.95,0,1.73,0.78,1.73,1.73v60.63
			c0,0.95-0.78,1.73-1.73,1.73H4.68C3.73,72.05,2.95,71.27,2.95,70.32z"/>
		<path class="st12" d="M3.14,70.1V9.9c0-0.97,0.79-1.76,1.76-1.76h140.2c0.97,0,1.76,0.79,1.76,1.76v60.2
			c0,0.97-0.79,1.76-1.76,1.76H4.9C3.93,71.86,3.14,71.07,3.14,70.1z"/>
		<path class="st13" d="M3.33,69.89V10.11c0-0.98,0.8-1.78,1.78-1.78h139.77c0.98,0,1.78,0.8,1.78,1.78v59.77
			c0,0.98-0.8,1.78-1.78,1.78H5.11C4.13,71.67,3.33,70.87,3.33,69.89z"/>
		<path class="st14" d="M3.52,69.67V10.33c0-1,0.81-1.81,1.81-1.81h139.34c1,0,1.81,0.81,1.81,1.81v59.34c0,1-0.81,1.81-1.81,1.81
			H5.33C4.33,71.48,3.52,70.67,3.52,69.67z"/>
		<path class="st15" d="M3.71,69.45V10.55c0-1.01,0.82-1.83,1.83-1.83h138.91c1.01,0,1.83,0.82,1.83,1.83v58.91
			c0,1.01-0.82,1.83-1.83,1.83H5.55C4.53,71.29,3.71,70.47,3.71,69.45z"/>
		<path class="st16" d="M3.9,69.24V10.76c0-1.02,0.83-1.86,1.86-1.86h138.48c1.02,0,1.86,0.83,1.86,1.86v58.48
			c0,1.02-0.83,1.86-1.86,1.86H5.76C4.74,71.1,3.9,70.26,3.9,69.24z"/>
		<path class="st17" d="M4.1,69.02V10.98c0-1.04,0.84-1.88,1.88-1.88h138.05c1.04,0,1.88,0.84,1.88,1.88v58.05
			c0,1.04-0.84,1.88-1.88,1.88H5.98C4.94,70.9,4.1,70.06,4.1,69.02z"/>
		<path class="st18" d="M4.29,68.81V11.19c0-1.05,0.85-1.91,1.91-1.91h137.62c1.05,0,1.91,0.85,1.91,1.91v57.62
			c0,1.05-0.85,1.91-1.91,1.91H6.19C5.14,70.71,4.29,69.86,4.29,68.81z"/>
		<path class="st19" d="M4.48,68.59V11.41c0-1.07,0.86-1.93,1.93-1.93h137.19c1.07,0,1.93,0.86,1.93,1.93v57.19
			c0,1.07-0.86,1.93-1.93,1.93H6.41C5.34,70.52,4.48,69.66,4.48,68.59z"/>
		<path class="st20" d="M4.67,68.38V11.62c0-1.08,0.88-1.96,1.96-1.96h136.76c1.08,0,1.96,0.88,1.96,1.96v56.76
			c0,1.08-0.88,1.96-1.96,1.96H6.62C5.54,70.33,4.67,69.46,4.67,68.38z"/>
		<path class="st21" d="M4.86,68.16V11.84c0-1.09,0.89-1.98,1.98-1.98h136.32c1.09,0,1.98,0.89,1.98,1.98v56.32
			c0,1.09-0.89,1.98-1.98,1.98H6.84C5.74,70.14,4.86,69.26,4.86,68.16z"/>
		<path class="st22" d="M5.05,67.95V12.05c0-1.11,0.9-2.01,2.01-2.01h135.89c1.11,0,2.01,0.9,2.01,2.01v55.89
			c0,1.11-0.9,2.01-2.01,2.01H7.05C5.95,69.95,5.05,69.05,5.05,67.95z"/>
		<path class="st23" d="M5.24,67.73V12.27c0-1.12,0.91-2.03,2.03-2.03h135.46c1.12,0,2.03,0.91,2.03,2.03v55.46
			c0,1.12-0.91,2.03-2.03,2.03H7.27C6.15,69.76,5.24,68.85,5.24,67.73z"/>
		<path class="st24" d="M5.43,67.52V12.48c0-1.13,0.92-2.06,2.06-2.06h135.03c1.13,0,2.06,0.92,2.06,2.06v55.03
			c0,1.13-0.92,2.06-2.06,2.06H7.48C6.35,69.57,5.43,68.65,5.43,67.52z"/>
		<path class="st25" d="M5.62,67.3V12.7c0-1.15,0.93-2.08,2.08-2.08h134.6c1.15,0,2.08,0.93,2.08,2.08v54.6
			c0,1.15-0.93,2.08-2.08,2.08H7.7C6.55,69.38,5.62,68.45,5.62,67.3z"/>
		<path class="st26" d="M5.81,67.09V12.91c0-1.16,0.94-2.11,2.11-2.11h134.17c1.16,0,2.11,0.94,2.11,2.11v54.17
			c0,1.16-0.94,2.11-2.11,2.11H7.91C6.75,69.19,5.81,68.25,5.81,67.09z"/>
		<path class="st27" d="M6,66.87V13.13C6,11.95,6.95,11,8.13,11h133.74c1.18,0,2.13,0.95,2.13,2.13v53.74
			c0,1.18-0.95,2.13-2.13,2.13H8.13C6.95,69,6,68.05,6,66.87z"/>
	</g>
	<g id="arrow">
		<polygon class="st28" points="61,40 77,24 75,22 57,40 75,58 77,56 		"/>
		<polygon class="st28" points="71,40 87,24 85,22 67,40 85,58 87,56 		"/>
		<polygon class="st29" points="63,40 79,24 77,22 59,40 77,58 79,56 		"/>
		<polygon class="st29" points="73,40 89,24 87,22 69,40 87,58 89,56 		"/>
		<polygon class="st0" points="62,40 78,24 76,22 58,40 76,58 78,56 		"/>
		<polygon class="st0" points="72,40 88,24 86,22 68,40 86,58 88,56 		"/>
	</g>
</g>
<g id="btn_x5F_lft_1_">
	<path class="st6" d="M296.39,6c1.44,0,2.61,1.17,2.61,2.61v62.79c0,1.44-1.17,2.61-2.61,2.61H153.61c-1.44,0-2.61-1.17-2.61-2.61
		V8.61c0-1.44,1.17-2.61,2.61-2.61H296.39z"/>
	<g>
		<path class="st0" d="M296.39,7c0.89,0,1.61,0.72,1.61,1.61v62.79c0,0.89-0.72,1.61-1.61,1.61H153.61c-0.89,0-1.61-0.72-1.61-1.61
			V8.61c0-0.89,0.72-1.61,1.61-1.61H296.39z"/>
		<path class="st7" d="M297.81,8.82v62.36c0,0.9-0.73,1.63-1.63,1.63H153.82c-0.9,0-1.63-0.73-1.63-1.63V8.82
			c0-0.9,0.73-1.63,1.63-1.63h142.36C297.08,7.19,297.81,7.92,297.81,8.82z"/>
		<path class="st8" d="M297.62,9.04v61.93c0,0.91-0.74,1.66-1.66,1.66H154.04c-0.91,0-1.66-0.74-1.66-1.66V9.04
			c0-0.91,0.74-1.66,1.66-1.66h141.93C296.88,7.38,297.62,8.12,297.62,9.04z"/>
		<path class="st9" d="M297.43,9.25v61.49c0,0.93-0.75,1.68-1.68,1.68H154.25c-0.93,0-1.68-0.75-1.68-1.68V9.25
			c0-0.93,0.75-1.68,1.68-1.68h141.49C296.67,7.57,297.43,8.33,297.43,9.25z"/>
		<path class="st10" d="M297.24,9.47v61.06c0,0.94-0.77,1.71-1.71,1.71H154.47c-0.94,0-1.71-0.77-1.71-1.71V9.47
			c0-0.94,0.77-1.71,1.71-1.71h141.06C296.47,7.76,297.24,8.53,297.24,9.47z"/>
		<path class="st11" d="M297.05,9.68v60.63c0,0.95-0.78,1.73-1.73,1.73H154.68c-0.95,0-1.73-0.78-1.73-1.73V9.68
			c0-0.95,0.78-1.73,1.73-1.73h140.63C296.27,7.95,297.05,8.73,297.05,9.68z"/>
		<path class="st12" d="M296.86,9.9v60.2c0,0.97-0.79,1.76-1.76,1.76H154.9c-0.97,0-1.76-0.79-1.76-1.76V9.9
			c0-0.97,0.79-1.76,1.76-1.76h140.2C296.07,8.14,296.86,8.93,296.86,9.9z"/>
		<path class="st13" d="M296.67,10.11v59.77c0,0.98-0.8,1.78-1.78,1.78H155.11c-0.98,0-1.78-0.8-1.78-1.78V10.11
			c0-0.98,0.8-1.78,1.78-1.78h139.77C295.87,8.33,296.67,9.13,296.67,10.11z"/>
		<path class="st14" d="M296.48,10.33v59.34c0,1-0.81,1.81-1.81,1.81H155.33c-1,0-1.81-0.81-1.81-1.81V10.33
			c0-1,0.81-1.81,1.81-1.81h139.34C295.67,8.52,296.48,9.33,296.48,10.33z"/>
		<path class="st15" d="M296.29,10.55v58.91c0,1.01-0.82,1.83-1.83,1.83H155.55c-1.01,0-1.83-0.82-1.83-1.83V10.55
			c0-1.01,0.82-1.83,1.83-1.83h138.91C295.47,8.71,296.29,9.53,296.29,10.55z"/>
		<path class="st16" d="M296.1,10.76v58.48c0,1.02-0.83,1.86-1.86,1.86H155.76c-1.02,0-1.86-0.83-1.86-1.86V10.76
			c0-1.02,0.83-1.86,1.86-1.86h138.48C295.26,8.9,296.1,9.74,296.1,10.76z"/>
		<path class="st17" d="M295.9,10.98v58.05c0,1.04-0.84,1.88-1.88,1.88H155.98c-1.04,0-1.88-0.84-1.88-1.88V10.98
			c0-1.04,0.84-1.88,1.88-1.88h138.05C295.06,9.1,295.9,9.94,295.9,10.98z"/>
		<path class="st18" d="M295.71,11.19v57.62c0,1.05-0.85,1.91-1.91,1.91H156.19c-1.05,0-1.91-0.85-1.91-1.91V11.19
			c0-1.05,0.85-1.91,1.91-1.91h137.62C294.86,9.29,295.71,10.14,295.71,11.19z"/>
		<path class="st19" d="M295.52,11.41v57.19c0,1.07-0.86,1.93-1.93,1.93H156.41c-1.07,0-1.93-0.86-1.93-1.93V11.41
			c0-1.07,0.86-1.93,1.93-1.93h137.19C294.66,9.48,295.52,10.34,295.52,11.41z"/>
		<path class="st20" d="M295.33,11.62v56.76c0,1.08-0.88,1.96-1.96,1.96H156.62c-1.08,0-1.96-0.88-1.96-1.96V11.62
			c0-1.08,0.88-1.96,1.96-1.96h136.76C294.46,9.67,295.33,10.54,295.33,11.62z"/>
		<path class="st21" d="M295.14,11.84v56.32c0,1.09-0.89,1.98-1.98,1.98H156.84c-1.09,0-1.98-0.89-1.98-1.98V11.84
			c0-1.09,0.89-1.98,1.98-1.98h136.32C294.26,9.86,295.14,10.74,295.14,11.84z"/>
		<path class="st22" d="M294.95,12.05v55.89c0,1.11-0.9,2.01-2.01,2.01H157.05c-1.11,0-2.01-0.9-2.01-2.01V12.05
			c0-1.11,0.9-2.01,2.01-2.01h135.89C294.05,10.05,294.95,10.95,294.95,12.05z"/>
		<path class="st23" d="M294.76,12.27v55.46c0,1.12-0.91,2.03-2.03,2.03H157.27c-1.12,0-2.03-0.91-2.03-2.03V12.27
			c0-1.12,0.91-2.03,2.03-2.03h135.46C293.85,10.24,294.76,11.15,294.76,12.27z"/>
		<path class="st24" d="M294.57,12.48v55.03c0,1.13-0.92,2.06-2.06,2.06H157.48c-1.13,0-2.06-0.92-2.06-2.06V12.48
			c0-1.13,0.92-2.06,2.06-2.06h135.03C293.65,10.43,294.57,11.35,294.57,12.48z"/>
		<path class="st25" d="M294.38,12.7v54.6c0,1.15-0.93,2.08-2.08,2.08H157.7c-1.15,0-2.08-0.93-2.08-2.08V12.7
			c0-1.15,0.93-2.08,2.08-2.08h134.6C293.45,10.62,294.38,11.55,294.38,12.7z"/>
		<path class="st26" d="M294.19,12.91v54.17c0,1.16-0.94,2.11-2.11,2.11H157.91c-1.16,0-2.11-0.94-2.11-2.11V12.91
			c0-1.16,0.94-2.11,2.11-2.11h134.17C293.25,10.81,294.19,11.75,294.19,12.91z"/>
		<path class="st27" d="M294,13.13v53.74c0,1.18-0.95,2.13-2.13,2.13H158.13c-1.18,0-2.13-0.95-2.13-2.13V13.13
			c0-1.18,0.95-2.13,2.13-2.13h133.74C293.05,11,294,11.95,294,13.13z"/>
	</g>
	<g id="arrow_1_">
		<polygon class="st28" points="238,40 222,56 224,58 242,40 224,22 222,24 		"/>
		<polygon class="st28" points="228,40 212,56 214,58 232,40 214,22 212,24 		"/>
		<polygon class="st29" points="240,40 224,56 226,58 244,40 226,22 224,24 		"/>
		<polygon class="st29" points="230,40 214,56 216,58 234,40 216,22 214,24 		"/>
		<polygon class="st0" points="239,40 223,56 225,58 243,40 225,22 223,24 		"/>
		<polygon class="st0" points="229,40 213,56 215,58 233,40 215,22 213,24 		"/>
	</g>
</g>
</svg>
