<svg xmlns="http://www.w3.org/2000/svg" xmlns:xlink="http://www.w3.org/1999/xlink" viewBox="0 0 3026.93 729.64"><defs><style>.cls-1{fill:none;}.cls-2{clip-path:url(#clip-path);}.cls-3{fill:#033b59;}.cls-4{fill:#0091b3;}</style><clipPath id="clip-path" transform="translate(-5.5 -8.06)"><rect class="cls-1" width="3040.64" height="505.4"/></clipPath></defs><title>Element 1</title><g id="Ebene_2" data-name="Ebene 2"><g id="Ebene_1-2" data-name="Ebene 1"><g class="cls-2"><path class="cls-3" d="M2928,485.7V271.08h104.39V198.17H2712.64v72.91h104V485.7Zm-568.76-16.14q43.06,24.88,123.54,24.89,101.29,0,148.34-24.69t47-77.57q0-35.38-23.52-56.28t-71.16-27.71l-101.47-14.38q-26.06-3.69-34.31-8t-8.27-12.45q0-8.76,10.69-13.9t29.36-5.15q25.67,0,39.86,6.9t16.32,20.51h129.47q-3.49-46.84-47.23-69T2484.38,190.6q-86.51,0-126.07,22.16t-39.56,70.37q0,36.17,26.14,57.74t77.86,27.8L2506,379q20.22,2.52,29.94,8.06t9.72,14.68q0,10.3-11.18,15.45t-33.73,5.15q-22.55,0-35.57-6.31t-14.59-18l-134.91.18q.57,46.47,43.64,71.35m-90.9,16.14V411.64H2065.62V373.92h156.49V303H2065.62V268.75h193.23V198.17H1954.22V485.7Zm-679.4,0,49.37-185.85L1687,485.7h121.12l98.76-287.53H1786.49L1739.63,399l-53.85-200.82h-92L1540.57,399,1490.8,198.17h-120l98.38,287.53ZM1323.85,198.17h-111.4V485.7h111.4ZM1165.32,485.7V406.77H989.77V198.17H878.38V485.7Z" transform="translate(-5.5 -8.06)"/><rect class="cls-4" x="174.77" y="46.06" width="51.88" height="356.26" transform="translate(-89.03 117.34) rotate(-29)"/><polygon class="cls-3" points="604.27 477.68 732.01 406.87 706.86 361.49 497.27 477.68 604.27 477.68"/><polygon class="cls-4" points="684.25 320.7 659.11 275.33 294.06 477.68 401.06 477.68 684.25 320.7"/><polygon class="cls-3" points="217.7 0 172.33 25.14 345.06 336.76 218.1 407.13 45.37 95.52 0 120.67 197.88 477.66 636.49 234.53 611.34 189.16 390.43 311.61 217.7 0"/><path class="cls-3" d="M1558.55,586.2a57.08,57.08,0,0,1,20.93,17.71l-7.16,5.7q-15.22-20.93-41.11-20.92-22.38,0-37.26,15.33t-14.85,38.07q0,22.93,14.85,38.36t37.63,15.41a52,52,0,0,0,25.69-6.42A49.25,49.25,0,0,0,1575.62,672V652H1531v-8.8h54.14V674a56.93,56.93,0,0,1-22.39,22.47,63.53,63.53,0,0,1-31.75,8.18q-26.05,0-44-18.09t-18-44.32q0-26.41,18-44.41t44-18a60.78,60.78,0,0,1,27.52,6.31" transform="translate(-5.5 -8.06)"/><path class="cls-3" d="M1681.41,669.26q0,16-9.92,25.69t-24.77,9.73q-15,0-25-9.73t-9.91-25.69V614.19H1621v55.43q0,12.11,7.34,19.27a26.86,26.86,0,0,0,36.52,0q7.35-7.17,7.33-19.27V614.19h9.19Z" transform="translate(-5.5 -8.06)"/><path class="cls-3" d="M1758.72,694.77v8.07a54,54,0,0,1-13.76,1.84q-12.48,0-19.82-6.43t-7.35-20.19V622.63h-15.41v-8.44h15.41V589.06h9.37v25.13h28.63v8.44h-28.63v55.06q0,18.54,19.26,18.54a61.18,61.18,0,0,0,12.3-1.46" transform="translate(-5.5 -8.06)"/><path class="cls-3" d="M1908.72,625.76q12.67,13.4,12.68,32.84t-12.68,32.77q-12.66,13.29-31.38,13.31a44.94,44.94,0,0,1-21.38-5.23A35.12,35.12,0,0,1,1841.19,685v17.79h-8.82V565.2h9.18v66.06a36,36,0,0,1,14.78-13.86,44.62,44.62,0,0,1,21-5,41.41,41.41,0,0,1,31.38,13.41m-6.87,59.55q10-10.74,10-26.89,0-15.95-10-26.7T1876.43,621a34.82,34.82,0,0,0-24.7,9.53q-10.18,9.57-10.18,28.08,0,18.36,10.18,27.91a34.83,34.83,0,0,0,24.7,9.54q15.4,0,25.42-10.74" transform="translate(-5.5 -8.06)"/><path class="cls-3" d="M2025.68,660.62h-74q.7,15.6,10.91,25.51t25.41,9.92q17.63,0,29.57-13.95l5.86,6.06q-14.14,16.5-35.6,16.52-19.29,0-32.58-13.31T1942,658.6q0-19.25,13-32.75a42.46,42.46,0,0,1,31.74-13.5q16.7,0,28.18,10.93t11.47,28.54a38.4,38.4,0,0,1-.74,8.8m-62.2-30.92a36.5,36.5,0,0,0-11.39,22.67h64.79q.54-14.31-8.44-22.93a30.62,30.62,0,0,0-22-8.64,32.42,32.42,0,0,0-22.93,8.9" transform="translate(-5.5 -8.06)"/><path class="cls-3" d="M2137.14,614.19V695q0,19.81-11.74,31.29t-30.65,11.46a55.71,55.71,0,0,1-23.13-4.77A52.11,52.11,0,0,1,2054,720.45l5.7-6.24q14.85,14.88,34.87,14.87,15,0,24.22-8.81t9.18-25V683.75a36.22,36.22,0,0,1-14.87,13.68,45.21,45.21,0,0,1-21.1,5q-18.72,0-31.29-13t-12.59-32.12q0-18.9,12.68-32a41.71,41.71,0,0,1,31.2-13.12,44.81,44.81,0,0,1,21.48,5.33,35.83,35.83,0,0,1,14.85,14.31V614.19Zm-19.36,70.3q10.2-9.37,10.19-27.17t-10.29-27.06a35.14,35.14,0,0,0-24.4-9.27q-15.42,0-25.5,10.46t-10.11,26.06q0,15.59,10.11,26t25.5,10.37a35,35,0,0,0,24.5-9.35" transform="translate(-5.5 -8.06)"/><path class="cls-3" d="M2181.7,574.37a8.18,8.18,0,0,1,0,11.39,8.23,8.23,0,0,1-11.56,0,8.23,8.23,0,0,1,0-11.39,8.18,8.18,0,0,1,11.56,0m-1.19,128.46h-9.18V614.19h9.18Z" transform="translate(-5.5 -8.06)"/><path class="cls-3" d="M2275.61,621.91q8.59,9.54,8.62,25v56h-9.18V647.42q0-11.76-6.7-19.09T2250.28,621q-11.57,0-19,7.52t-7.45,18.91v55.41h-9.17V614.19h8.81v11.93q9.73-13.77,28.26-13.77,15.24,0,23.87,9.56" transform="translate(-5.5 -8.06)"/><path class="cls-3" d="M2378.07,621.91q8.61,9.54,8.63,25v56h-9.18V647.42q0-11.76-6.71-19.09T2352.74,621q-11.56,0-19,7.52t-7.44,18.91v55.41h-9.18V614.19H2326v11.93q9.72-13.77,28.26-13.77,15.24,0,23.86,9.56" transform="translate(-5.5 -8.06)"/><path class="cls-3" d="M2464,694.77v8.07a54.1,54.1,0,0,1-13.76,1.84q-12.48,0-19.82-6.43t-7.34-20.19V622.63h-15.41v-8.44h15.41V589.06h9.36v25.13h28.63v8.44h-28.63v55.06q0,18.54,19.26,18.54a61.1,61.1,0,0,0,12.3-1.46" transform="translate(-5.5 -8.06)"/><path class="cls-3" d="M2655.58,621.81q8.34,9.44,8.36,25.05v56h-9.38V647.59q0-11.93-6.22-19.26c-4.18-4.9-9.92-7.34-17.27-7.34s-13.61,2.44-18.43,7.34a24.38,24.38,0,0,0-7.26,17.8v56.71h-9.16V647.59q0-11.93-6.34-19.26T2572.55,621q-11.39,0-18.55,7.52t-7.16,19.08v55.25h-9.18V614.19h8.82v11.57q9.36-13.41,27.34-13.41,20.37,0,27.89,17.27a34.36,34.36,0,0,1,12.3-12.48,34.81,34.81,0,0,1,18.35-4.79q14.86,0,23.22,9.46" transform="translate(-5.5 -8.06)"/><path class="cls-3" d="M2707.05,574.37a8.2,8.2,0,0,1,0,11.39,8.25,8.25,0,0,1-11.57,0,8.23,8.23,0,0,1,0-11.39,8.2,8.2,0,0,1,11.57,0m-1.2,128.46h-9.17V614.19h9.17Z" transform="translate(-5.5 -8.06)"/><path class="cls-3" d="M2784.42,694.77v8.07a54,54,0,0,1-13.76,1.84q-12.48,0-19.82-6.43t-7.33-20.19V622.63h-15.42v-8.44h15.42V589.06h9.35v25.13h28.64v8.44h-28.64v55.06q0,18.54,19.27,18.54a61,61,0,0,0,12.29-1.46" transform="translate(-5.5 -8.06)"/><polygon class="cls-3" points="2863.03 686.14 2922.69 686.14 2922.69 694.77 2853.5 694.77 2853.5 573.64 2863.03 573.64 2863.03 686.14"/><path class="cls-3" d="M2967.43,689.16a8.74,8.74,0,0,1,2.66,6.7,8.29,8.29,0,0,1-2.66,6.33,9.16,9.16,0,0,1-6.51,2.49,8.72,8.72,0,0,1-6.15-2.49,8.26,8.26,0,0,1-2.67-6.33,8.94,8.94,0,0,1,2.57-6.61,8.58,8.58,0,0,1,6.25-2.57,9.24,9.24,0,0,1,6.51,2.48" transform="translate(-5.5 -8.06)"/></g></g></g></svg>